<svg width="251" height="41" viewBox="0 0 251 41" fill="none" xmlns="http://www.w3.org/2000/svg">
<g id="Benjamin Moore">
<path id="Benjamin Moore_2" opacity="0.3" d="M1.38373 38.2745V38.8908H2H17.7946C21.1909 38.8908 24.0879 37.8612 26.4451 35.783C28.8163 33.6925 30.0042 30.9999 30.0042 27.7549C30.0042 25.8135 29.575 24.0869 28.6955 22.5965C27.9495 21.3322 26.8938 20.262 25.5466 19.3805C27.5918 17.5045 28.6215 15.1004 28.6215 12.2087C28.6215 9.06503 27.4494 6.45882 25.115 4.43915C22.8284 2.3954 20.002 1.38373 16.6778 1.38373H2H1.38373V2V38.2745ZM19.0663 15.0838L19.0611 15.0888L19.0561 15.094C18.4358 15.7272 17.6589 16.049 16.6778 16.049H9.95518V9.30115H16.6778C17.7003 9.30115 18.4928 9.62688 19.1093 10.2562C19.7324 10.8923 20.0501 11.6835 20.0501 12.6751C20.0501 13.6576 19.7211 14.4457 19.0663 15.0838ZM20.4397 24.715L20.4396 24.7151L20.449 24.7243C21.1374 25.3951 21.4859 26.2341 21.4859 27.2885C21.4859 28.3805 21.1349 29.2564 20.4443 29.961C19.7555 30.6298 18.8881 30.9734 17.7946 30.9734H9.95518V23.6555H17.7946C18.8826 23.6555 19.7484 24.0122 20.4397 24.715ZM57.8425 31.4342V30.8179H57.2262H42.1543V23.9146H55.6308H56.2471V23.2983V16.5616V15.9453H55.6308H42.1543V9.45661H56.9603H57.5766V8.84034V2V1.38373H56.9603H34.1991H33.5828V2V38.2745V38.8908H34.1991H57.2262H57.8425V38.2745V31.4342ZM83.9374 1.38373H83.3211V2V22.219L68.4831 1.63958L68.2987 1.38373H67.9832H62.3993H61.783V2V38.2745V38.8908H62.3993H69.7382H70.3545V38.2745V18.0073L85.192 38.6344L85.3765 38.8908H85.6923H91.2763H91.8926V38.2745V2V1.38373H91.2763H83.9374ZM95.7648 31.5694L95.2459 31.8583L95.5154 32.3875C96.735 34.7823 98.4252 36.6003 100.589 37.8144C102.749 39.026 105.344 39.6163 108.349 39.6163C112.297 39.6163 115.586 38.5269 118.164 36.3059C120.771 34.0603 122.048 30.9221 122.048 26.9776V2V1.38373H121.432H114.146H113.53V2V26.9776C113.53 28.396 113.099 29.4472 112.288 30.2075C111.49 30.9564 110.217 31.3879 108.349 31.3879C107.033 31.3879 105.947 31.1204 105.066 30.6147C104.189 30.1109 103.479 29.3499 102.941 28.3027L102.65 27.7354L102.093 28.0456L95.7648 31.5694ZM150.353 38.474L150.496 38.8908H150.936H158.914H159.791L159.493 38.0654L146.411 1.79092L146.264 1.38373H145.831H136.737H136.304L136.157 1.79168L123.128 38.0662L122.832 38.8908H123.708H131.632H132.072L132.215 38.474L134.306 32.3614H148.262L150.353 38.474ZM199.573 2V1.38373H198.957H191.405H191.062L190.881 1.67523L180.768 17.9853L170.603 1.67406L170.422 1.38373H170.08H162.528H161.912V2V38.2745V38.8908H162.528H169.867H170.483V38.2745V16.9515L179.821 31.9159L180.002 32.2059H180.344H181.194H181.537L181.718 31.9152L191.055 16.9053V38.2745V38.8908H191.671H198.957H199.573V38.2745V2ZM205.893 1.38373H205.277V2V38.2745V38.8908H205.893H213.232H213.848V38.2745V2V1.38373H213.232H205.893ZM241.661 1.38373H241.045V2V22.219L226.207 1.63958L226.022 1.38373H225.707H220.123H219.507V2V38.2745V38.8908H220.123H227.462H228.078V38.2745V18.0073L242.916 38.6344L243.1 38.8908H243.416H249H249.616V38.2745V2V1.38373H249H241.661ZM137.07 24.444L141.311 12.1317L145.552 24.444H137.07Z" stroke="white" stroke-width="1.23255"/>
</g>
</svg>
