<svg width="24" height="24" viewBox="0 0 24 24" fill="none" xmlns="http://www.w3.org/2000/svg">
<g id="fluent:location-28-filled">
<path id="Vector" d="M12.0002 1.92871C14.2167 1.92871 16.3423 2.80919 17.9096 4.37646C19.4769 5.94373 20.3574 8.0694 20.3574 10.2859C20.3574 13.8173 17.8759 17.6659 12.9774 21.8727C12.705 22.1067 12.3577 22.2352 11.9986 22.2349C11.6395 22.2346 11.2925 22.1055 11.0205 21.871L10.6965 21.5899C6.01478 17.4927 3.64307 13.7384 3.64307 10.2859C3.64307 8.0694 4.52355 5.94373 6.09082 4.37646C7.65809 2.80919 9.78376 1.92871 12.0002 1.92871ZM12.0002 7.07157C11.1477 7.07157 10.3302 7.41022 9.72737 8.01301C9.12457 8.61581 8.78592 9.43337 8.78592 10.2859C8.78592 11.1383 9.12457 11.9559 9.72737 12.5587C10.3302 13.1615 11.1477 13.5001 12.0002 13.5001C12.8527 13.5001 13.6703 13.1615 14.2731 12.5587C14.8758 11.9559 15.2145 11.1383 15.2145 10.2859C15.2145 9.43337 14.8758 8.61581 14.2731 8.01301C13.6703 7.41022 12.8527 7.07157 12.0002 7.07157Z" fill="#3B3C40"/>
</g>
</svg>
