<svg width="41" height="41" viewBox="0 0 41 41" fill="none" xmlns="http://www.w3.org/2000/svg">
<g id="logo-rewire-svgrepo-com 1">
<g id="Group">
<path id="Vector" fill-rule="evenodd" clip-rule="evenodd" d="M5.13508 7.09265L5.5904 6.30468L6.32231 5.77905L6.97095 5.4834L35.0201 5.55771L35.7847 5.98052L36.5979 6.67977L36.7185 34.7705L36.2092 35.3235L35.1911 35.7952L6.7408 35.9144L5.75536 35.4381L5.04907 34.5841L5.13508 7.09265ZM6.64855 29.9732L35.1633 29.954L35.2441 7.15046L6.75073 7.06334L6.64855 29.9732ZM12.6237 34.0527L16.4115 34.0863L16.4291 33.5469L13.2726 33.5181L13.304 32.9307L16.4037 32.9435L16.4288 32.5368L13.3255 32.5112C13.3255 32.5112 13.3179 31.8635 13.3261 31.7857C13.3343 31.7079 16.4322 31.8635 16.4322 31.8635L16.4242 31.4567L12.6554 31.4718L12.6237 34.0527ZM30.401 33.8926L34.1889 33.9262L34.2065 33.3868L31.05 33.3579L31.0814 32.7705L34.181 32.7833L34.2062 32.3767L31.1028 32.351C31.1028 32.351 31.0953 31.7034 31.1035 31.6255C31.1116 31.5477 34.2095 31.7034 34.2095 31.7034L34.2015 31.2966L30.4327 31.3116L30.401 33.8926ZM17.6401 31.4849L17.6204 33.9939L22.6022 34.0172L22.6057 31.4953L21.6682 31.4825L21.6952 33.3801L20.4459 33.4033L20.4205 31.5006L19.5717 31.4716L19.5903 33.4271L18.3726 33.3895L18.3385 31.4772L17.6401 31.4849ZM23.8258 31.4705L23.7662 34.0626L24.4639 34.0516C24.4639 34.0516 24.4398 31.5147 24.4195 31.4742C24.3992 31.4335 23.8258 31.4707 23.8258 31.4707V31.4705ZM7.70975 31.4939L7.68781 34.0649L8.40755 34.0482L8.40611 33.0384L9.98172 33.0588L10.5977 33.9225L11.5987 33.9302L10.7993 33.0716L11.48 32.6017L11.4481 31.3959L7.70975 31.4939ZM25.6472 31.4939L25.6253 34.0649L26.345 34.0482L26.3436 33.0384L27.9192 33.0588L28.5352 33.9225L29.5362 33.9302L28.7368 33.0716L29.4175 32.6017L29.3856 31.3959L25.6472 31.4939Z" fill="#E50E78"/>
<path id="Vector_2" fill-rule="evenodd" clip-rule="evenodd" d="M8.44597 23.5371L11.992 23.4867L14.3668 23.0265L16.6115 22.1233L17.5379 21.5814L18.6342 22.3089L19.9679 22.9594L18.1423 24.0656L16.3691 24.9603L14.8091 25.5133L12.9672 25.7883L8.44966 25.8716L8.44597 23.5371ZM8.38496 19.6757L10.3829 19.691L11.5541 19.412L12.7252 18.9028L14.197 19.6312L15.7099 20.3631L13.8847 21.3877L11.9798 21.8268L10.3869 22.0544L8.30151 22.0864L8.38496 19.6757Z" fill="#E50E78"/>
<path id="Vector_3" fill-rule="evenodd" clip-rule="evenodd" d="M8.42261 17.1512L10.7487 17.2806L12.9284 18.0288L15.108 19.0212L17.0107 19.9296L18.9625 21.2635L20.8331 22.4996L22.557 23.6367L24.8413 24.6484L27.1511 25.6082L28.371 25.8196L33.4959 25.8185L33.5023 23.3882L29.3867 23.5179L26.8752 22.7791L24.1996 21.6135L22.0988 20.1365L19.8525 18.6429L17.5499 17.3873L15.3516 16.1723L12.9917 15.1054L11.1329 14.6777L8.45752 14.7077L8.42261 17.1512Z" fill="#E50E78"/>
<path id="Vector_4" fill-rule="evenodd" clip-rule="evenodd" d="M8.46045 13.364L11.9052 13.3721L13.7921 13.7463L15.7927 14.5759L17.6308 15.5192L19.9731 16.9182L21.8599 18.2519L24.3161 19.7646L26.4795 20.8545L28.7079 21.7328L30.3671 22.0417L33.6919 22.0571L33.6905 19.644L30.8508 19.7579L28.208 18.8549L25.68 17.4098L22.8244 15.7678L20.1989 14.0437L17.7369 12.6149L15.4117 11.5398L13.8536 11.1128L13.1228 10.9644L8.47582 11.0667L8.46045 13.364Z" fill="#E50E78"/>
<path id="Vector_5" fill-rule="evenodd" clip-rule="evenodd" d="M33.6987 17.0265L33.7361 14.4403L30.8143 14.4711L29.4517 14.7313L27.6618 15.2682L26.266 15.9514L25.7406 16.2442L27.2025 16.9732L28.6663 17.7703L30.2765 17.3103L31.5128 17.0805L33.6987 17.0265ZM33.5131 13.2785L33.5903 10.7397L30.4051 10.7553L28.1235 10.7705L26.0217 11.3399L23.8056 12.3645L22.0983 13.616L22.1108 13.9376L23.1843 14.572L24.3554 15.3852L25.9169 14.4986L27.6898 13.891L29.9346 13.3971L33.5131 13.2785ZM8.54588 32.0317L8.52954 32.6011L10.4423 32.6158L10.5236 32.0247L8.54588 32.0317ZM26.4834 32.0317L26.467 32.6011L28.3798 32.6158L28.4611 32.0247L26.4834 32.0317Z" fill="#E50E78"/>
</g>
</g>
</svg>
