<svg width="18" height="18" viewBox="0 0 18 18" fill="none" xmlns="http://www.w3.org/2000/svg">
<g id="Group">
<path id="Vector" d="M5.16178 4.32962C4.91454 4.08218 4.51342 4.08218 4.26619 4.32962C3.34823 5.24758 2.89705 6.52634 3.02817 7.83825C3.06088 8.16508 3.33621 8.4087 3.65774 8.4087C3.67887 8.4087 3.70016 8.40762 3.72129 8.40552C4.06944 8.37069 4.32341 8.06011 4.28859 7.71219C4.19527 6.77987 4.51366 5.87333 5.16178 5.22518C5.40921 4.97798 5.40921 4.57682 5.16178 4.32962Z" fill="white"/>
<path id="Vector_2" d="M7.66994 0.428223C3.67698 0.428223 0.428467 3.67673 0.428467 7.66969C0.428467 11.6627 3.67698 14.9112 7.66994 14.9112C11.6629 14.9112 14.9114 11.6627 14.9114 7.66969C14.9114 3.67673 11.6629 0.428223 7.66994 0.428223ZM7.66994 13.6444C4.37539 13.6444 1.69521 10.9642 1.69521 7.66969C1.69521 4.37514 4.37539 1.69497 7.66994 1.69497C10.9643 1.69497 13.6447 4.37514 13.6447 7.66969C13.6447 10.9642 10.9645 13.6444 7.66994 13.6444Z" fill="white"/>
<path id="Vector_3" d="M17.3858 16.4902L12.7833 11.8877C12.5359 11.6403 12.1352 11.6403 11.8877 11.8877C11.6403 12.135 11.6403 12.5361 11.8877 12.7833L16.4902 17.3858C16.5489 17.4447 16.6187 17.4914 16.6956 17.5232C16.7724 17.5551 16.8548 17.5714 16.938 17.5713C17.1002 17.5713 17.2621 17.5095 17.3858 17.3858C17.6332 17.1385 17.6332 16.7374 17.3858 16.4902Z" fill="white"/>
</g>
</svg>
