<svg width="24" height="24" viewBox="0 0 24 24" fill="none" xmlns="http://www.w3.org/2000/svg">
<g id="icons">
<path id="Vector" d="M11.7789 11.5344C12.9514 11.5344 13.9666 11.1138 14.7962 10.2841C15.6257 9.45463 16.0462 8.43964 16.0462 7.26706C16.0462 6.09484 15.6257 5.07974 14.796 4.24991C13.9663 3.4205 12.9512 3 11.7789 3C10.6063 3 9.59129 3.4205 8.76177 4.25005C7.93226 5.0796 7.51158 6.09473 7.51158 7.26706C7.51158 8.43964 7.93222 9.45477 8.76191 10.2843C9.5916 11.1137 10.6067 11.5344 11.7789 11.5344ZM19.2456 16.6235C19.2216 16.2783 19.1732 15.9017 19.102 15.5041C19.0301 15.1034 18.9375 14.7246 18.8267 14.3785C18.7122 14.0207 18.5565 13.6674 18.364 13.3287C18.1642 12.9773 17.9296 12.6713 17.6662 12.4195C17.3909 12.156 17.0538 11.9442 16.6639 11.7897C16.2755 11.636 15.8449 11.5582 15.3844 11.5582C15.2036 11.5582 15.0287 11.6324 14.6909 11.8523C14.4508 12.0087 14.2099 12.1639 13.9684 12.3181C13.7363 12.466 13.4219 12.6045 13.0335 12.73C12.6547 12.8526 12.27 12.9147 11.8903 12.9147C11.5106 12.9147 11.126 12.8526 10.7467 12.73C10.3588 12.6046 10.0444 12.4661 9.81258 12.3182C9.54371 12.1464 9.30045 11.9896 9.08943 11.8521C8.75205 11.6322 8.57699 11.558 8.39615 11.558C7.93548 11.558 7.50511 11.636 7.11676 11.7898C6.72719 11.9441 6.38994 12.1559 6.11433 12.4196C5.85117 12.6715 5.61638 12.9774 5.41686 13.3287C5.22453 13.6673 5.06882 14.0205 4.95417 14.3786C4.84344 14.7248 4.75088 15.1034 4.67897 15.5041C4.60772 15.9012 4.55935 16.2779 4.5354 16.6239C4.51158 16.9721 4.49978 17.3211 4.5 17.6701C4.5 18.595 4.79399 19.3437 5.37374 19.8958C5.94633 20.4407 6.70394 20.7171 7.62525 20.7171H16.1561C17.0774 20.7171 17.8348 20.4409 18.4075 19.8959C18.9874 19.3441 19.2814 18.5953 19.2814 17.67C19.2812 17.313 19.2692 16.9609 19.2456 16.6235Z" fill="#E50E78"/>
</g>
</svg>
