<svg width="20" height="18" viewBox="0 0 20 18" fill="none" xmlns="http://www.w3.org/2000/svg">
<path d="M0.5 1.29219C0.5 0.853184 0.853184 0.5 1.29219 0.5H2.79404C3.52022 0.5 4.16387 0.9225 4.46424 1.55625H18.0305C18.8986 1.55625 19.5323 2.38145 19.3046 3.21984L17.9512 8.24693C17.6707 9.28338 16.7299 10.0062 15.6572 10.0062H6.13443L6.31268 10.947C6.38529 11.32 6.71207 11.5906 7.09166 11.5906H16.6078C17.0468 11.5906 17.4 11.9438 17.4 12.3828C17.4 12.8218 17.0468 13.175 16.6078 13.175H7.09166C5.94959 13.175 4.96926 12.363 4.75801 11.244L3.05481 2.29893C3.0317 2.1735 2.92277 2.08437 2.79404 2.08437H1.29219C0.853184 2.08437 0.5 1.73119 0.5 1.29219ZM4.725 15.8156C4.725 15.6076 4.76598 15.4015 4.8456 15.2093C4.92523 15.0171 5.04193 14.8424 5.18905 14.6953C5.33618 14.5482 5.51084 14.4315 5.70306 14.3519C5.89529 14.2722 6.10131 14.2312 6.30938 14.2312C6.51744 14.2312 6.72346 14.2722 6.91569 14.3519C7.10792 14.4315 7.28258 14.5482 7.4297 14.6953C7.57682 14.8424 7.69353 15.0171 7.77315 15.2093C7.85277 15.4015 7.89375 15.6076 7.89375 15.8156C7.89375 16.0237 7.85277 16.2297 7.77315 16.4219C7.69353 16.6142 7.57682 16.7888 7.4297 16.9359C7.28258 17.0831 7.10792 17.1998 6.91569 17.2794C6.72346 17.359 6.51744 17.4 6.30938 17.4C6.10131 17.4 5.89529 17.359 5.70306 17.2794C5.51084 17.1998 5.33618 17.0831 5.18905 16.9359C5.04193 16.7888 4.92523 16.6142 4.8456 16.4219C4.76598 16.2297 4.725 16.0237 4.725 15.8156ZM15.8156 14.2312C16.2358 14.2312 16.6388 14.3982 16.936 14.6953C17.2331 14.9924 17.4 15.3954 17.4 15.8156C17.4 16.2358 17.2331 16.6388 16.936 16.9359C16.6388 17.2331 16.2358 17.4 15.8156 17.4C15.3954 17.4 14.9924 17.2331 14.6953 16.9359C14.3982 16.6388 14.2313 16.2358 14.2313 15.8156C14.2313 15.3954 14.3982 14.9924 14.6953 14.6953C14.9924 14.3982 15.3954 14.2312 15.8156 14.2312Z" fill="#3B3C40"/>
</svg>
