<svg width="20" height="18" viewBox="0 0 20 18" fill="none" xmlns="http://www.w3.org/2000/svg">
<g id="Group 2">
<path id="Rectangle 2" d="M1.42871 1.74603C1.42871 0.781725 2.21044 0 3.17474 0H16.8255C17.7898 0 18.5716 0.781725 18.5716 1.74603H1.42871Z" fill="#E50E78"/>
<path id="Rectangle 3" d="M0.476562 4.44525C0.476562 3.48094 1.25829 2.69922 2.22259 2.69922H17.7781C18.7425 2.69922 19.5242 3.48094 19.5242 4.44525H0.476562Z" fill="#E50E78"/>
<path id="Rectangle 4" d="M1 7.39746C1 6.84518 1.44771 6.39746 2 6.39746H18C18.5523 6.39746 19 6.84518 19 7.39746V15.6197C19 16.172 18.5523 16.6197 18 16.6197H2C1.44772 16.6197 1 16.172 1 15.6197V7.39746Z" stroke="#E50E78" stroke-width="2"/>
</g>
</svg>
