<svg width="49" height="64" viewBox="0 0 49 64" fill="none" xmlns="http://www.w3.org/2000/svg">
<g id="Benjamin Moore">
<path id="Benjamin Moore_2" opacity="0.3" d="M1 61.6154V62.6154H2H27.6292C33.1438 62.6154 37.8462 60.922 41.6707 57.5069C45.517 54.0725 47.4412 49.652 47.4412 44.3269C47.4412 38.3675 45.0057 33.7476 40.1953 30.5663C43.5243 27.4821 45.1975 23.53 45.1975 18.7775C45.1975 13.6192 43.2992 9.34071 39.5125 6.0225C35.8026 2.66403 31.2147 1 25.817 1H2H1V2V61.6154ZM29.6881 23.5163L29.6799 23.5244L29.6718 23.5328C28.6642 24.5746 27.4049 25.1016 25.817 25.1016H14.9085V13.9863H25.817C27.4722 13.9863 28.7568 14.5199 29.7581 15.5551C30.7709 16.6023 31.289 17.9075 31.289 19.544C31.289 21.1661 30.7523 22.466 29.6881 23.5163ZM31.9168 39.3175L31.9242 39.3252L31.9318 39.3326C33.0505 40.4367 33.619 41.8203 33.619 43.5604C33.619 45.3621 33.0466 46.8064 31.9242 47.966C30.8059 49.0661 29.3998 49.6291 27.6292 49.6291H14.9085V37.5769H27.6292C29.3905 37.5769 30.7942 38.1614 31.9168 39.3175Z" stroke="white" stroke-width="2"/>
</g>
</svg>
