<svg width="16" height="19" viewBox="0 0 16 19" fill="none" xmlns="http://www.w3.org/2000/svg">
<path d="M7.77892 9.03437C8.95136 9.03437 9.96663 8.61383 10.7962 7.78415C11.6257 6.95463 12.0462 5.93964 12.0462 4.76706C12.0462 3.59484 11.6257 2.57974 10.796 1.74991C9.96635 0.920502 8.95122 0.5 7.77892 0.5C6.60631 0.5 5.59129 0.920502 4.76177 1.75005C3.93226 2.5796 3.51158 3.59473 3.51158 4.76706C3.51158 5.93964 3.93222 6.95477 4.76191 7.78432C5.5916 8.61373 6.60673 9.03437 7.77892 9.03437ZM15.2456 14.1235C15.2216 13.7783 15.1732 13.4017 15.102 13.0041C15.0301 12.6034 14.9375 12.2246 14.8267 11.8785C14.7122 11.5207 14.5565 11.1674 14.364 10.8287C14.1642 10.4773 13.9296 10.1713 13.6662 9.91946C13.3909 9.65602 13.0538 9.44421 12.6639 9.28967C12.2755 9.13604 11.8449 9.05818 11.3844 9.05818C11.2036 9.05818 11.0287 9.13237 10.6909 9.35231C10.4508 9.50866 10.2099 9.66392 9.96839 9.81807C9.73631 9.96597 9.4219 10.1045 9.03354 10.23C8.65467 10.3526 8.26998 10.4147 7.89028 10.4147C7.51061 10.4147 7.12602 10.3526 6.74673 10.23C6.35883 10.1046 6.04442 9.9661 5.81258 9.81821C5.54371 9.6464 5.30045 9.48961 5.08943 9.35213C4.75205 9.13223 4.57699 9.058 4.39615 9.058C3.93548 9.058 3.50511 9.136 3.11676 9.28985C2.72719 9.44408 2.38994 9.65588 2.11433 9.9196C1.85117 10.1715 1.61638 10.4774 1.41686 10.8287C1.22453 11.1673 1.06882 11.5205 0.954174 11.8786C0.843443 12.2248 0.750879 12.6034 0.678973 13.0041C0.607724 13.4012 0.559348 13.7779 0.535403 14.1239C0.511582 14.4721 0.499775 14.8211 0.500003 15.1701C0.500003 16.095 0.793995 16.8437 1.37374 17.3958C1.94633 17.9407 2.70394 18.2171 3.62525 18.2171H12.1561C13.0774 18.2171 13.8348 17.9409 14.4075 17.3959C14.9874 16.8441 15.2814 16.0953 15.2814 15.17C15.2812 14.813 15.2692 14.4609 15.2456 14.1235Z" fill="#3B3C40"/>
</svg>
