<svg width="20" height="21" viewBox="0 0 20 21" fill="none" xmlns="http://www.w3.org/2000/svg">
<g id="Group">
<path id="Vector" fill-rule="evenodd" clip-rule="evenodd" d="M7.83744 2.91435C8.41694 2.42055 9.14802 2.14001 9.9091 2.11939C10.6702 2.09877 11.4154 2.33931 12.0208 2.80101L12.1624 2.91435L12.4758 3.18101C12.7038 3.37571 12.9802 3.50526 13.2758 3.55601L13.4241 3.57435L13.8349 3.60768C14.596 3.6684 15.3131 3.98855 15.8665 4.51458C16.4198 5.04062 16.7758 5.74066 16.8749 6.49768L16.8924 6.66435L16.9258 7.07601C16.9494 7.37461 17.053 7.66133 17.2258 7.90601L17.3174 8.02435L17.5858 8.33768C18.0796 8.91718 18.3601 9.64827 18.3807 10.4093C18.4013 11.1704 18.1608 11.9156 17.6991 12.521L17.5858 12.6627L17.3183 12.976C17.1236 13.2041 16.994 13.4805 16.9433 13.776L16.9249 13.9243L16.8924 14.3352C16.8317 15.0962 16.5116 15.8134 15.9855 16.3667C15.4595 16.9201 14.7595 17.2761 14.0024 17.3752L13.8349 17.3927L13.4241 17.426C13.1255 17.4496 12.8388 17.5532 12.5941 17.726L12.4758 17.8185L12.1616 18.0852C11.5822 18.5791 10.8512 18.8598 10.0901 18.8806C9.32901 18.9013 8.58375 18.6609 7.97827 18.1993L7.83744 18.086L7.5241 17.8185C7.29603 17.6238 7.01965 17.4943 6.7241 17.4435L6.57577 17.426L6.16494 17.3927C5.40388 17.332 4.68673 17.0118 4.13339 16.4858C3.58005 15.9597 3.22406 15.2597 3.12494 14.5027L3.10744 14.336L3.0741 13.9243C3.0505 13.6257 2.94687 13.339 2.7741 13.0943L2.6816 12.976L2.4141 12.6618C1.9203 12.0823 1.63976 11.3513 1.61914 10.5902C1.59852 9.8291 1.83907 9.0839 2.30077 8.47851L2.4141 8.33768L2.68077 8.02435C2.87546 7.79627 3.00502 7.51989 3.05577 7.22435L3.0741 7.07601L3.10744 6.66518C3.16816 5.90412 3.4883 5.18697 4.01434 4.63363C4.54037 4.08029 5.24042 3.7243 5.99744 3.62518L6.1641 3.60768L6.57577 3.57435C6.87437 3.55075 7.16109 3.44711 7.40577 3.27435L7.5241 3.18185L7.83744 2.91435ZM12.0833 11.3335C11.7517 11.3335 11.4338 11.4652 11.1994 11.6996C10.965 11.934 10.8333 12.252 10.8333 12.5835C10.8333 12.915 10.965 13.233 11.1994 13.4674C11.4338 13.7018 11.7517 13.8335 12.0833 13.8335C12.4148 13.8335 12.7327 13.7018 12.9672 13.4674C13.2016 13.233 13.3333 12.915 13.3333 12.5835C13.3333 12.252 13.2016 11.934 12.9672 11.6996C12.7327 11.4652 12.4148 11.3335 12.0833 11.3335ZM11.9108 7.41101L6.91077 12.411C6.83118 12.4879 6.76769 12.5798 6.72402 12.6815C6.68034 12.7832 6.65736 12.8925 6.65639 13.0032C6.65543 13.1138 6.67652 13.2236 6.71842 13.326C6.76032 13.4284 6.8222 13.5214 6.90044 13.5997C6.97868 13.6779 7.07173 13.7398 7.17414 13.7817C7.27655 13.8236 7.38629 13.8447 7.49694 13.8437C7.60759 13.8428 7.71694 13.8198 7.81861 13.7761C7.92028 13.7324 8.01223 13.6689 8.0891 13.5893L13.0891 8.58935C13.2409 8.43218 13.3249 8.22168 13.323 8.00318C13.3211 7.78468 13.2335 7.57567 13.079 7.42116C12.9244 7.26666 12.7154 7.17902 12.4969 7.17712C12.2784 7.17522 12.0679 7.25921 11.9108 7.41101ZM7.9166 7.16685C7.58508 7.16685 7.26714 7.29854 7.03272 7.53296C6.7983 7.76738 6.6666 8.08533 6.6666 8.41685C6.6666 8.74837 6.7983 9.06631 7.03272 9.30073C7.26714 9.53515 7.58508 9.66685 7.9166 9.66685C8.24812 9.66685 8.56607 9.53515 8.80049 9.30073C9.03491 9.06631 9.1666 8.74837 9.1666 8.41685C9.1666 8.08533 9.03491 7.76738 8.80049 7.53296C8.56607 7.29854 8.24812 7.16685 7.9166 7.16685Z" fill="url(#paint0_linear_596_617)"/>
</g>
<defs>
<linearGradient id="paint0_linear_596_617" x1="9.99994" y1="2.11816" x2="9.99994" y2="18.8818" gradientUnits="userSpaceOnUse">
<stop stop-color="#A536FF"/>
<stop offset="1" stop-color="#E50E78"/>
</linearGradient>
</defs>
</svg>
